<?xml version="1.0"?>
<svg xmlns="http://www.w3.org/2000/svg" xmlns:xlink="http://www.w3.org/1999/xlink" xmlns:svgjs="http://svgjs.com/svgjs" version="1.1" width="512" height="512" x="0" y="0" viewBox="0 0 64 64" style="enable-background:new 0 0 512 512" xml:space="preserve" class=""><g><g xmlns="http://www.w3.org/2000/svg"><path d="m31 5h6v2h-6z" fill="#3333336b" data-original="#000000" style="" class=""/><path d="m27 5h2v2h-2z" fill="#3333336b" data-original="#000000" style="" class=""/><path d="m21.586 53h-.586c-1.103 0-2 .897-2 2v2c0 1.103.897 2 2 2h.586c.534 0 1.036-.208 1.414-.586l2.414-2.414-2.414-2.414c-.378-.378-.88-.586-1.414-.586zm0 4h-.586v-2h.586l1 1z" fill="#3333336b" data-original="#000000" style="" class=""/><path d="m33 53h-2c-1.103 0-2 .897-2 2v2c0 1.103.897 2 2 2h2c1.103 0 2-.897 2-2v-2c0-1.103-.897-2-2-2zm-2 4v-2h2l.001 2z" fill="#3333336b" data-original="#000000" style="" class=""/><path d="m43 53h-.586c-.534 0-1.036.208-1.414.586l-2.414 2.414 2.414 2.414c.378.378.88.586 1.414.586h.586c1.103 0 2-.897 2-2v-2c0-1.103-.897-2-2-2zm-.586 4-1-1 1-1h.586l.001 2z" fill="#3333336b" data-original="#000000" style="" class=""/><path d="m25 32c0-4.962-4.038-9-9-9s-9 4.038-9 9 4.038 9 9 9 9-4.038 9-9zm-16 0c0-3.86 3.14-7 7-7s7 3.14 7 7-3.14 7-7 7-7-3.14-7-7z" fill="#3333336b" data-original="#000000" style="" class=""/><path d="m21 32c0-2.757-2.243-5-5-5s-5 2.243-5 5 2.243 5 5 5 5-2.243 5-5zm-8 0c0-1.654 1.346-3 3-3s3 1.346 3 3-1.346 3-3 3-3-1.346-3-3z" fill="#3333336b" data-original="#000000" style="" class=""/><path d="m51 21v-15c0-2.757-2.243-5-5-5h-28c-2.757 0-5 2.243-5 5v11h-.777l-.713 2.802c-.319.119-.639.252-.956.4l-2.49-1.48-5.342 5.342 1.48 2.489c-.147.317-.281.637-.4.956l-2.802.714v7.555l2.802.713c.119.319.252.639.4.956l-1.48 2.49 5.342 5.342 2.49-1.48c.317.147.636.281.956.4l.713 2.801h.777v11c0 2.757 2.243 5 5 5h28c2.757 0 5-2.243 5-5v-13c6.617 0 12-5.383 12-12s-5.383-12-12-12zm10 12c0 2.057-.626 3.971-1.695 5.562-.923-2.25-2.708-4.005-4.925-4.901.989-.914 1.62-2.211 1.62-3.661 0-2.757-2.243-5-5-5s-5 2.243-5 5c0 1.45.631 2.747 1.62 3.661-2.217.896-4.002 2.651-4.925 4.901-1.069-1.591-1.695-3.505-1.695-5.562 0-5.514 4.486-10 10-10s10 4.486 10 10zm-13-3c0-1.654 1.346-3 3-3s3 1.346 3 3-1.346 3-3 3-3-1.346-3-3zm-29 17h.777l.713-2.802c.319-.119.639-.252.956-.4l2.49 1.48 5.342-5.342-1.48-2.49c.147-.317.281-.636.4-.956l2.802-.713v-7.555l-2.802-.713c-.119-.319-.252-.639-.4-.956l1.48-2.489-5.342-5.342-2.49 1.48c-.317-.147-.636-.281-.956-.4l-.713-2.802h-.777v-6h26v11.624c-3.581 2.079-6 5.946-6 10.376s2.419 8.297 6 10.376v5.624h-26zm-4-41c0-1.654 1.346-3 3-3h28c1.654 0 3 1.346 3 3v15.181c-.689.116-1.356.291-2 .519v-12.7h-30v8h-2zm-4.033 35.773-.493-.254-2.095 1.246-3.143-3.143 1.246-2.095-.254-.493c-.288-.558-.525-1.124-.704-1.683l-.169-.528-2.355-.6v-4.445l2.354-.599.169-.528c.179-.559.416-1.125.704-1.684l.254-.493-1.246-2.095 3.143-3.143 2.095 1.246.493-.254c.558-.288 1.124-.525 1.683-.704l.528-.169.6-2.355h4.445l.599 2.354.528.169c.56.179 1.125.416 1.683.704l.493.254 2.095-1.246 3.143 3.143-1.246 2.095.254.493c.288.559.525 1.125.704 1.684l.169.528 2.356.599v4.445l-2.354.599-.169.528c-.179.56-.416 1.125-.704 1.683l-.254.493 1.246 2.095-3.143 3.143-2.095-1.246-.493.254c-.558.288-1.124.525-1.683.704l-.528.169-.6 2.356h-4.445l-.599-2.354-.528-.169c-.56-.179-1.126-.416-1.684-.704zm38.033 16.227c0 1.654-1.346 3-3 3h-28c-1.654 0-3-1.346-3-3v-11h2v4h30v-6.7c.644.229 1.311.403 2 .519zm-4.785-17.675c.76-3.114 3.534-5.325 6.785-5.325s6.025 2.211 6.785 5.325c-1.785 1.654-4.165 2.675-6.785 2.675s-5-1.021-6.785-2.675z" fill="#3333336b" data-original="#000000" style="" class=""/><path d="m31 12.382v13.236l13.236-6.618zm2 3.236 6.764 3.382-6.764 3.382z" fill="#3333336b" data-original="#000000" style="" class=""/></g></g></svg>
